<svg xmlns="http://www.w3.org/2000/svg" viewBox="0 0 181.87 50.9">
  <title>logo </title>
  <g>
    <path d="M10.29,22.18a9.53,9.53,0,0,1-3.8-.78,9.75,9.75,0,0,1-3.22-2.25A10.94,10.94,0,0,1,1,15.56a13,13,0,0,1-.83-4.78A13.66,13.66,0,0,1,1,6,11.31,11.31,0,0,1,3.28,2.23,9.85,9.85,0,0,1,6.63-.16,10.23,10.23,0,0,1,10.77-1a10.12,10.12,0,0,1,3,.41A11,11,0,0,1,16.27.54l.64-1.06h1.25l.14,7.91H17a18.69,18.69,0,0,0-.75-2.51A9.7,9.7,0,0,0,15.1,2.59,5.69,5.69,0,0,0,13.32.93,4.59,4.59,0,0,0,11,.32,6.05,6.05,0,0,0,8.14,1,6.42,6.42,0,0,0,5.89,3,9.8,9.8,0,0,0,4.47,6.2,17.13,17.13,0,0,0,4,10.57a13.4,13.4,0,0,0,.54,3.9A10.09,10.09,0,0,0,6,17.59a7.41,7.41,0,0,0,2.36,2.08,6.23,6.23,0,0,0,3.05.75,6.57,6.57,0,0,0,2.33-.4A6.24,6.24,0,0,0,15.61,19,8.21,8.21,0,0,0,17,17.4a8.64,8.64,0,0,0,1-1.91l1.17.56a9.68,9.68,0,0,1-3.56,4.71A9.61,9.61,0,0,1,10.29,22.18Z" transform="translate(-0.22 1)" fill="#f1cdb3"/>
    <path d="M38.08,13.79a10.18,10.18,0,0,1-.52,3.2,7.62,7.62,0,0,1-1.47,2.66,6.85,6.85,0,0,1-2.5,1.86,8,8,0,0,1-3.19.61,7.2,7.2,0,0,1-2.8-.55,7.05,7.05,0,0,1-2.36-1.62,7.73,7.73,0,0,1-1.62-2.55A9.05,9.05,0,0,1,23,14a8.4,8.4,0,0,1,2.1-5.91,7.12,7.12,0,0,1,5.51-2.3A7.11,7.11,0,0,1,36,8,8,8,0,0,1,38.08,13.79Zm-3.23,0a14,14,0,0,0-.23-2.48,7.83,7.83,0,0,0-.7-2.21,4.33,4.33,0,0,0-1.31-1.55,3.31,3.31,0,0,0-2-.59,3.52,3.52,0,0,0-2.06.59,4.38,4.38,0,0,0-1.39,1.62,7.19,7.19,0,0,0-.7,2.17,14.31,14.31,0,0,0-.2,2.36,14.8,14.8,0,0,0,.24,2.77,8,8,0,0,0,.77,2.27,4.41,4.41,0,0,0,1.34,1.57,3.37,3.37,0,0,0,2,.57A3.48,3.48,0,0,0,33.7,19,10.09,10.09,0,0,0,34.84,13.82Z" transform="translate(-0.22 1)" fill="#f1cdb3"/>
    <path d="M54.17,21.65H41.7v-.83L50.43,7.51H48.27q-1.36,0-2.13,0a4.36,4.36,0,0,0-1.41.31,1.82,1.82,0,0,0-.82,1A10,10,0,0,0,43.25,11h-1V6.25H54.07v.64l-8.86,13.5,1.23,0H47.9l1.3,0q.68,0,1.74-.08a1.23,1.23,0,0,0,.94-.42,2.86,2.86,0,0,0,.49-.89q.17-.45.41-1.25t.43-1.55h.94Z" transform="translate(-0.22 1)" fill="#f1cdb3"/>
    <path d="M56.71,26.68a1.87,1.87,0,0,1,.43-1.27,1.36,1.36,0,0,1,1.07-.49,1.85,1.85,0,0,1,.86.19,2.42,2.42,0,0,1,.64.48,4.06,4.06,0,0,1,.5.63q.27.4.42.67a6.24,6.24,0,0,0,1.87-2.2,17.82,17.82,0,0,0,1.57-3.12q-1.48-3.7-2.69-6.62t-2.51-6a2.24,2.24,0,0,0-1-1.12,4.15,4.15,0,0,0-1.41-.51v-1h7V7.34a5,5,0,0,0-1.13.2q-.66.18-.66.41a1.2,1.2,0,0,0,.07.31q.07.22.16.45.59,1.55,1.81,4.46t1.89,4.66l1.46-3.46q.76-1.79,1.7-4.22l.31-.82a2.55,2.55,0,0,0,.2-.9q0-.41-.71-.76a4.23,4.23,0,0,0-1.35-.43v-1H73v1a3.85,3.85,0,0,0-1.23.54,2.82,2.82,0,0,0-1.14,1.3q-1.86,4.31-3.3,7.86t-2.2,5.22a28.89,28.89,0,0,1-1.76,3.41,10.3,10.3,0,0,1-1.51,1.93,4.42,4.42,0,0,1-1.3.88,3.34,3.34,0,0,1-1.21.23A2.91,2.91,0,0,1,57.41,28,1.7,1.7,0,0,1,56.71,26.68Z" transform="translate(-0.22 1)" fill="#f1cdb3"/>
    <path d="M109.08,21.65h-9.2V20.54l1.09-.09a3.26,3.26,0,0,0,1-.19,1.33,1.33,0,0,0,.69-.57,2,2,0,0,0,.22-1V10.81H92.43v7.72a2.13,2.13,0,0,0,.18.92,1.55,1.55,0,0,0,.71.66,4,4,0,0,0,.95.28,7,7,0,0,0,1.07.16v1.11h-9.2V20.54l1.09-.09a3.26,3.26,0,0,0,1-.19,1.32,1.32,0,0,0,.69-.57,2,2,0,0,0,.22-1V2.7a2.05,2.05,0,0,0-.2-.91,1.41,1.41,0,0,0-.7-.65,5.7,5.7,0,0,0-1-.36,5.94,5.94,0,0,0-1-.19V-.52h9.2V.59a7.06,7.06,0,0,0-1.07.14,7.56,7.56,0,0,0-.95.23,1.12,1.12,0,0,0-.71.63,2.5,2.5,0,0,0-.18,1V9.42h10.42V2.7a2.06,2.06,0,0,0-.2-.91,1.41,1.41,0,0,0-.7-.65,5.71,5.71,0,0,0-1-.36,5.93,5.93,0,0,0-1-.19V-.52h9.2V.59A7.06,7.06,0,0,0,108,.73a7.56,7.56,0,0,0-.95.23,1.12,1.12,0,0,0-.71.63,2.5,2.5,0,0,0-.18,1v16a2.13,2.13,0,0,0,.18.92,1.55,1.55,0,0,0,.71.66,4,4,0,0,0,.95.28,7,7,0,0,0,1.07.16Z" transform="translate(-0.22 1)" fill="#f1cdb3"/>
    <path d="M128.68,13.79a10.15,10.15,0,0,1-.52,3.2,7.61,7.61,0,0,1-1.47,2.66,6.84,6.84,0,0,1-2.5,1.86,8,8,0,0,1-3.19.61,7.2,7.2,0,0,1-2.8-.55,7,7,0,0,1-2.36-1.62,7.73,7.73,0,0,1-1.62-2.55,9.05,9.05,0,0,1-.6-3.38,8.4,8.4,0,0,1,2.1-5.91A7.7,7.7,0,0,1,126.57,8,8,8,0,0,1,128.68,13.79Zm-3.23,0a13.94,13.94,0,0,0-.24-2.48,7.8,7.8,0,0,0-.7-2.21,4.33,4.33,0,0,0-1.31-1.55,3.32,3.32,0,0,0-2-.59,3.51,3.51,0,0,0-2.06.59,4.38,4.38,0,0,0-1.38,1.62,7.19,7.19,0,0,0-.71,2.17,14.31,14.31,0,0,0-.2,2.36,14.89,14.89,0,0,0,.24,2.77,8,8,0,0,0,.78,2.27,4.42,4.42,0,0,0,1.34,1.57,3.37,3.37,0,0,0,2,.57A3.48,3.48,0,0,0,124.3,19,10.09,10.09,0,0,0,125.44,13.82Z" transform="translate(-0.22 1)" fill="#f1cdb3"/>
    <path d="M149.08,21.37l-5,.34-.24-.22v-2h-.09q-.37.39-.84.84a5.87,5.87,0,0,1-1.08.8,6.87,6.87,0,0,1-1.36.64,6.13,6.13,0,0,1-1.86.22,3.75,3.75,0,0,1-3.11-1.33,6.08,6.08,0,0,1-1.07-3.88V9.46a1.92,1.92,0,0,0-.21-.94,1.87,1.87,0,0,0-1.33-.94,6.84,6.84,0,0,0-.9-.12v-1l5.14-.37.23.22V17a3.68,3.68,0,0,0,.75,2.52,2.32,2.32,0,0,0,1.8.84,4.15,4.15,0,0,0,1.53-.27,4.42,4.42,0,0,0,1.13-.62,5.28,5.28,0,0,0,.74-.69,4,4,0,0,0,.49-.68V9.35a1.87,1.87,0,0,0-.22-.91,2.06,2.06,0,0,0-.61-.68,1.74,1.74,0,0,0-.84-.23l-1.24-.07v-1l5.61-.37.24.22V18.5a1.76,1.76,0,0,0,.22.91,2,2,0,0,0,.61.64,1.73,1.73,0,0,0,.67.23,8.23,8.23,0,0,0,.86.07Z" transform="translate(-0.22 1)" fill="#f1cdb3"/>
    <path d="M162.66,14.1a4,4,0,0,1,1,1.3,4.23,4.23,0,0,1,.34,1.8,4.38,4.38,0,0,1-1.6,3.5,6.85,6.85,0,0,1-6.62.88,6.78,6.78,0,0,1-1.62-.89l-.31,1h-1.17l-.16-5.36h1.08a6,6,0,0,0,.53,1.43,6.83,6.83,0,0,0,1,1.47,5.42,5.42,0,0,0,1.46,1.16,3.89,3.89,0,0,0,1.91.47,3.49,3.49,0,0,0,2.31-.68,2.42,2.42,0,0,0,.81-2,2.35,2.35,0,0,0-.26-1.13,2.5,2.5,0,0,0-.76-.84,6,6,0,0,0-1.27-.65q-.75-.29-1.67-.57a15.34,15.34,0,0,1-1.63-.6,6.48,6.48,0,0,1-1.54-.9,4.38,4.38,0,0,1-1.12-1.34,3.83,3.83,0,0,1-.44-1.87,4.22,4.22,0,0,1,1.41-3.2,5.3,5.3,0,0,1,3.77-1.31,7.69,7.69,0,0,1,1.85.23,6.42,6.42,0,0,1,1.54.56l.36-.81H163l.23,5h-1.08A5,5,0,0,0,160.7,8,3.68,3.68,0,0,0,158,7a3,3,0,0,0-2,.65,2,2,0,0,0-.73,1.56,2.53,2.53,0,0,0,.24,1.17,2.15,2.15,0,0,0,.73.8,6,6,0,0,0,1.18.59q.71.27,1.76.62a15.14,15.14,0,0,1,1.95.77A6.41,6.41,0,0,1,162.66,14.1Z" transform="translate(-0.22 1)" fill="#f1cdb3"/>
    <path d="M182.09,18A7.9,7.9,0,0,1,179.5,21a6.53,6.53,0,0,1-3.73,1.09,7.59,7.59,0,0,1-3.26-.66,6.39,6.39,0,0,1-2.3-1.78A7.56,7.56,0,0,1,168.85,17a11.09,11.09,0,0,1-.45-3.17,9.33,9.33,0,0,1,.48-2.95,8.29,8.29,0,0,1,1.4-2.6,6.76,6.76,0,0,1,2.21-1.79,6.37,6.37,0,0,1,3-.68,7.13,7.13,0,0,1,2.89.53,5.15,5.15,0,0,1,2,1.45,5.81,5.81,0,0,1,1.07,2.06,9.05,9.05,0,0,1,.35,2.58v1h-10.2a12.1,12.1,0,0,0,.29,2.76,6.59,6.59,0,0,0,.91,2.18,4.35,4.35,0,0,0,1.59,1.43,4.92,4.92,0,0,0,2.34.52,4.32,4.32,0,0,0,2.4-.65A6.45,6.45,0,0,0,181,17.35Zm-3.45-5.88a12.77,12.77,0,0,0-.15-1.87A5.74,5.74,0,0,0,178,8.62a3.18,3.18,0,0,0-1-1.17A2.68,2.68,0,0,0,175.42,7a3.35,3.35,0,0,0-2.73,1.36,6.34,6.34,0,0,0-1.18,3.79Z" transform="translate(-0.22 1)" fill="#f1cdb3"/>
  </g>
  <g>
    <path d="M1.58,44.32l1.16-.1a2.57,2.57,0,0,0,.38,1.15,2.1,2.1,0,0,0,.94.72,3.56,3.56,0,0,0,1.43.28,3.42,3.42,0,0,0,1.24-.21,1.72,1.72,0,0,0,.8-.57,1.33,1.33,0,0,0,.26-.8A1.21,1.21,0,0,0,7.55,44a1.88,1.88,0,0,0-.84-.55A16.19,16.19,0,0,0,5.06,43a8.41,8.41,0,0,1-1.8-.58,2.52,2.52,0,0,1-1-.87,2.12,2.12,0,0,1-.33-1.16,2.37,2.37,0,0,1,.4-1.32,2.47,2.47,0,0,1,1.17-.93,4.42,4.42,0,0,1,1.71-.32A4.66,4.66,0,0,1,7,38.18a2.63,2.63,0,0,1,1.22,1,2.82,2.82,0,0,1,.46,1.47l-1.18.09a1.9,1.9,0,0,0-.64-1.33,2.51,2.51,0,0,0-1.62-.45,2.6,2.6,0,0,0-1.63.41,1.23,1.23,0,0,0-.51,1,1.06,1.06,0,0,0,.36.83,4.89,4.89,0,0,0,1.86.66,12.33,12.33,0,0,1,2.06.59,2.83,2.83,0,0,1,1.2.95A2.31,2.31,0,0,1,9,44.68a2.53,2.53,0,0,1-.43,1.4,2.8,2.8,0,0,1-1.22,1,4.26,4.26,0,0,1-1.79.37,5.36,5.36,0,0,1-2.12-.37A3,3,0,0,1,2.09,46,3.14,3.14,0,0,1,1.58,44.32Z" transform="translate(-0.22 1)" fill="#fff"/>
    <path d="M12.16,47.31V38H13.3v3.34a2.55,2.55,0,0,1,2-.93,2.73,2.73,0,0,1,1.3.29,1.73,1.73,0,0,1,.79.82A3.76,3.76,0,0,1,17.65,43v4.27H16.5V43a1.77,1.77,0,0,0-.37-1.25,1.38,1.38,0,0,0-1.05-.39,1.86,1.86,0,0,0-1,.26,1.49,1.49,0,0,0-.64.71,3.28,3.28,0,0,0-.19,1.24v3.69Z" transform="translate(-0.22 1)" fill="#fff"/>
    <path d="M25.07,45.14l1.18.15a2.88,2.88,0,0,1-1,1.61,3.11,3.11,0,0,1-1.93.57,3.08,3.08,0,0,1-2.35-.91A3.56,3.56,0,0,1,20.08,44,3.73,3.73,0,0,1,21,41.35a3,3,0,0,1,2.27-.94,2.88,2.88,0,0,1,2.21.92,3.66,3.66,0,0,1,.86,2.59c0,.07,0,.17,0,.3h-5a2.59,2.59,0,0,0,.63,1.7,1.87,1.87,0,0,0,1.41.59,1.74,1.74,0,0,0,1.07-.33A2.19,2.19,0,0,0,25.07,45.14Zm-3.75-1.85h3.76A2.29,2.29,0,0,0,24.65,42a1.75,1.75,0,0,0-1.42-.66,1.82,1.82,0,0,0-1.32.53A2.08,2.08,0,0,0,21.32,43.29Z" transform="translate(-0.22 1)" fill="#fff"/>
    <path d="M28.73,47.31V38h1.14v9.31Z" transform="translate(-0.22 1)" fill="#fff"/>
    <path d="M35.55,46.29l.17,1a4.19,4.19,0,0,1-.86.1,2,2,0,0,1-1-.2,1.1,1.1,0,0,1-.48-.52,4.09,4.09,0,0,1-.14-1.35V41.46h-.84v-.89h.84V38.9l1.14-.69v2.35h1.15v.89H34.4V45.4a2,2,0,0,0,.06.63.48.48,0,0,0,.2.22.76.76,0,0,0,.39.08A3.76,3.76,0,0,0,35.55,46.29Z" transform="translate(-0.22 1)" fill="#fff"/>
    <path d="M43,45.14l1.18.15a2.88,2.88,0,0,1-1,1.61,3.5,3.5,0,0,1-4.27-.34A3.55,3.55,0,0,1,38,44a3.73,3.73,0,0,1,.88-2.64,3,3,0,0,1,2.27-.94,2.88,2.88,0,0,1,2.21.92,3.66,3.66,0,0,1,.86,2.59q0,.1,0,.3h-5a2.59,2.59,0,0,0,.63,1.7,1.87,1.87,0,0,0,1.41.59,1.74,1.74,0,0,0,1.07-.33A2.19,2.19,0,0,0,43,45.14Zm-3.75-1.85H43A2.29,2.29,0,0,0,42.55,42a1.75,1.75,0,0,0-1.42-.66,1.82,1.82,0,0,0-1.32.53A2.08,2.08,0,0,0,39.22,43.29Z" transform="translate(-0.22 1)" fill="#fff"/>
    <path d="M46.64,47.31V40.57h1v1a2.79,2.79,0,0,1,.73-.95,1.27,1.27,0,0,1,.73-.23,2.23,2.23,0,0,1,1.17.37l-.39,1.06a1.64,1.64,0,0,0-.84-.25,1.09,1.09,0,0,0-.67.23,1.22,1.22,0,0,0-.43.63,4.45,4.45,0,0,0-.19,1.33v3.53Z" transform="translate(-0.22 1)" fill="#fff"/>
    <path d="M57.53,47.31V41.46h-1v-.89h1v-.72a3.14,3.14,0,0,1,.12-1,1.46,1.46,0,0,1,.58-.72,2.1,2.1,0,0,1,1.16-.28,5.59,5.59,0,0,1,1.07.11l-.17,1a3.87,3.87,0,0,0-.67-.06,1,1,0,0,0-.74.22,1.2,1.2,0,0,0-.22.83v.62H60v.89H58.67v5.85Z" transform="translate(-0.22 1)" fill="#fff"/>
    <path d="M62.13,43.94a3.47,3.47,0,0,1,1-2.77,3.14,3.14,0,0,1,2.12-.75,3,3,0,0,1,2.27.91,3.47,3.47,0,0,1,.88,2.52,4.46,4.46,0,0,1-.39,2A2.76,2.76,0,0,1,66.92,47a3.31,3.31,0,0,1-1.63.41A3,3,0,0,1,63,46.55,3.63,3.63,0,0,1,62.13,43.94Zm1.17,0a2.87,2.87,0,0,0,.56,1.94,1.88,1.88,0,0,0,2.84,0,2.94,2.94,0,0,0,.56-2,2.79,2.79,0,0,0-.57-1.9,1.88,1.88,0,0,0-2.83,0A2.86,2.86,0,0,0,63.31,43.94Z" transform="translate(-0.22 1)" fill="#fff"/>
    <path d="M70.84,47.31V40.57h1v1a2.78,2.78,0,0,1,.73-.95,1.27,1.27,0,0,1,.73-.23,2.23,2.23,0,0,1,1.17.37l-.39,1.06a1.64,1.64,0,0,0-.84-.25,1.09,1.09,0,0,0-.67.23,1.22,1.22,0,0,0-.43.63A4.45,4.45,0,0,0,72,43.78v3.53Z" transform="translate(-0.22 1)" fill="#fff"/>
    <path d="M81.46,49.89V40.57h1v.88a2.57,2.57,0,0,1,.83-.77,2.29,2.29,0,0,1,1.12-.26,2.67,2.67,0,0,1,1.52.44,2.73,2.73,0,0,1,1,1.25,4.58,4.58,0,0,1,.34,1.77,4.5,4.5,0,0,1-.37,1.86A2.79,2.79,0,0,1,85.86,47a2.76,2.76,0,0,1-1.49.44,2.15,2.15,0,0,1-1-.24,2.32,2.32,0,0,1-.75-.61v3.28Zm1-5.92A2.93,2.93,0,0,0,83,45.9a1.61,1.61,0,0,0,1.28.62,1.65,1.65,0,0,0,1.3-.64,3.05,3.05,0,0,0,.54-2A3,3,0,0,0,85.61,42a1.6,1.6,0,0,0-1.27-.64,1.65,1.65,0,0,0-1.29.68A3.05,3.05,0,0,0,82.49,44Z" transform="translate(-0.22 1)" fill="#fff"/>
    <path d="M94.37,45.14l1.18.15a2.88,2.88,0,0,1-1,1.61,3.5,3.5,0,0,1-4.27-.34A3.56,3.56,0,0,1,89.38,44a3.73,3.73,0,0,1,.88-2.64,3,3,0,0,1,2.27-.94,2.88,2.88,0,0,1,2.21.92,3.66,3.66,0,0,1,.86,2.59c0,.07,0,.17,0,.3h-5a2.59,2.59,0,0,0,.63,1.7,1.87,1.87,0,0,0,1.41.59,1.74,1.74,0,0,0,1.07-.33A2.19,2.19,0,0,0,94.37,45.14Zm-3.75-1.85h3.76A2.29,2.29,0,0,0,94,42a1.75,1.75,0,0,0-1.42-.66,1.81,1.81,0,0,0-1.32.53A2.08,2.08,0,0,0,90.62,43.29Z" transform="translate(-0.22 1)" fill="#fff"/>
    <path d="M100.55,46.29l.17,1a4.2,4.2,0,0,1-.86.1,2,2,0,0,1-1-.2,1.1,1.1,0,0,1-.48-.52,4.07,4.07,0,0,1-.14-1.35V41.46h-.84v-.89h.84V38.9l1.14-.69v2.35h1.15v.89H99.4V45.4a2,2,0,0,0,.06.63.47.47,0,0,0,.2.22.76.76,0,0,0,.39.08A3.77,3.77,0,0,0,100.55,46.29Z" transform="translate(-0.22 1)" fill="#fff"/>
    <path d="M102.9,45.3l1.13-.18a1.58,1.58,0,0,0,.53,1,1.85,1.85,0,0,0,1.22.36,1.79,1.79,0,0,0,1.17-.32,1,1,0,0,0,.38-.75.69.69,0,0,0-.34-.61,5,5,0,0,0-1.17-.39,10.65,10.65,0,0,1-1.74-.55,1.67,1.67,0,0,1-1-1.55,1.74,1.74,0,0,1,.21-.83,1.85,1.85,0,0,1,.56-.64,2.36,2.36,0,0,1,.73-.33,3.46,3.46,0,0,1,1-.14,3.9,3.9,0,0,1,1.39.23,1.9,1.9,0,0,1,.89.62,2.42,2.42,0,0,1,.39,1l-1.12.15a1.22,1.22,0,0,0-.44-.81,1.62,1.62,0,0,0-1-.29,1.86,1.86,0,0,0-1.12.26.75.75,0,0,0-.34.61.63.63,0,0,0,.14.4,1,1,0,0,0,.44.3l1,.29a14,14,0,0,1,1.69.53,1.72,1.72,0,0,1,.75.6,1.68,1.68,0,0,1,.27,1,1.92,1.92,0,0,1-.33,1.08,2.15,2.15,0,0,1-1,.78,3.49,3.49,0,0,1-1.42.28,3.16,3.16,0,0,1-2-.55A2.54,2.54,0,0,1,102.9,45.3Z" transform="translate(-0.22 1)" fill="#fff"/>
    <path d="M117,39.32V38h1.14v1.31Zm0,8V40.57h1.14v6.74Z" transform="translate(-0.22 1)" fill="#fff"/>
    <path d="M121.26,47.31V40.57h1v1a2.42,2.42,0,0,1,2.15-1.11,2.82,2.82,0,0,1,1.12.22,1.77,1.77,0,0,1,.77.58,2.22,2.22,0,0,1,.36.84,6.58,6.58,0,0,1,.06,1.11v4.14h-1.14v-4.1a3.08,3.08,0,0,0-.13-1,1.1,1.1,0,0,0-.47-.55,1.51,1.51,0,0,0-.8-.21,1.85,1.85,0,0,0-1.26.46,2.28,2.28,0,0,0-.53,1.76v3.68Z" transform="translate(-0.22 1)" fill="#fff"/>
    <path d="M135,47.31V38h3.49a4.34,4.34,0,0,1,1.71.28,2.2,2.2,0,0,1,1,.87,2.29,2.29,0,0,1,.37,1.23,2.12,2.12,0,0,1-.32,1.12,2.31,2.31,0,0,1-1,.85,2.43,2.43,0,0,1,1.3.84,2.26,2.26,0,0,1,.45,1.41,2.72,2.72,0,0,1-.28,1.21,2.36,2.36,0,0,1-.68.87,2.84,2.84,0,0,1-1,.46,6.21,6.21,0,0,1-1.5.16Zm1.23-5.4h2a4.53,4.53,0,0,0,1.17-.11,1.31,1.31,0,0,0,.71-.46,1.34,1.34,0,0,0,.24-.81,1.49,1.49,0,0,0-.22-.82,1.12,1.12,0,0,0-.63-.48A5.3,5.3,0,0,0,138,39.1h-1.86Zm0,4.3h2.32a5.22,5.22,0,0,0,.84,0,2,2,0,0,0,.71-.25,1.34,1.34,0,0,0,.47-.52,1.62,1.62,0,0,0,.18-.78,1.55,1.55,0,0,0-.27-.91,1.4,1.4,0,0,0-.74-.54,4.59,4.59,0,0,0-1.36-.16h-2.15Z" transform="translate(-0.22 1)" fill="#fff"/>
    <path d="M144.73,43.94a3.47,3.47,0,0,1,1-2.77,3.14,3.14,0,0,1,2.12-.75,3,3,0,0,1,2.27.91,3.47,3.47,0,0,1,.88,2.52,4.46,4.46,0,0,1-.39,2A2.76,2.76,0,0,1,149.52,47a3.31,3.31,0,0,1-1.63.41,3,3,0,0,1-2.29-.91A3.63,3.63,0,0,1,144.73,43.94Zm1.17,0a2.87,2.87,0,0,0,.56,1.94,1.88,1.88,0,0,0,2.84,0,2.94,2.94,0,0,0,.56-2,2.79,2.79,0,0,0-.57-1.9,1.88,1.88,0,0,0-2.83,0A2.86,2.86,0,0,0,145.91,43.94Z" transform="translate(-0.22 1)" fill="#fff"/>
    <path d="M153,45.3l1.13-.18a1.58,1.58,0,0,0,.53,1,1.84,1.84,0,0,0,1.21.36A1.78,1.78,0,0,0,157,46.2a1,1,0,0,0,.38-.75.69.69,0,0,0-.34-.61,5,5,0,0,0-1.17-.39,10.59,10.59,0,0,1-1.74-.55,1.67,1.67,0,0,1-1-1.55,1.74,1.74,0,0,1,.21-.83,1.86,1.86,0,0,1,.56-.64,2.35,2.35,0,0,1,.73-.33,3.46,3.46,0,0,1,1-.14,3.9,3.9,0,0,1,1.39.23,1.89,1.89,0,0,1,.89.62,2.42,2.42,0,0,1,.39,1l-1.12.15a1.23,1.23,0,0,0-.44-.81,1.61,1.61,0,0,0-1-.29,1.87,1.87,0,0,0-1.12.26.76.76,0,0,0-.34.61.63.63,0,0,0,.14.4,1,1,0,0,0,.44.3l1,.29a14,14,0,0,1,1.69.53,1.72,1.72,0,0,1,.75.6,1.67,1.67,0,0,1,.27,1,1.92,1.92,0,0,1-.33,1.08,2.16,2.16,0,0,1-1,.78,3.49,3.49,0,0,1-1.42.28,3.17,3.17,0,0,1-2-.55A2.54,2.54,0,0,1,153,45.3Z" transform="translate(-0.22 1)" fill="#fff"/>
    <path d="M164.25,46.29l.17,1a4.2,4.2,0,0,1-.86.1,2,2,0,0,1-1-.2,1.1,1.1,0,0,1-.48-.52,4.07,4.07,0,0,1-.14-1.35V41.46h-.84v-.89H162V38.9l1.14-.69v2.35h1.15v.89H163.1V45.4a2,2,0,0,0,.06.63.48.48,0,0,0,.2.22.77.77,0,0,0,.39.08A3.77,3.77,0,0,0,164.25,46.29Z" transform="translate(-0.22 1)" fill="#fff"/>
    <path d="M166.63,43.94a3.47,3.47,0,0,1,1-2.77,3.14,3.14,0,0,1,2.12-.75,3,3,0,0,1,2.27.91,3.47,3.47,0,0,1,.88,2.52,4.46,4.46,0,0,1-.39,2A2.77,2.77,0,0,1,171.42,47a3.31,3.31,0,0,1-1.63.41,3,3,0,0,1-2.29-.91A3.63,3.63,0,0,1,166.63,43.94Zm1.17,0a2.87,2.87,0,0,0,.57,1.94,1.88,1.88,0,0,0,2.84,0,2.94,2.94,0,0,0,.57-2,2.79,2.79,0,0,0-.57-1.9,1.88,1.88,0,0,0-2.83,0A2.86,2.86,0,0,0,167.81,43.94Z" transform="translate(-0.22 1)" fill="#fff"/>
    <path d="M175.36,47.31V40.57h1v1a2.42,2.42,0,0,1,2.15-1.11,2.82,2.82,0,0,1,1.12.22,1.76,1.76,0,0,1,.76.58,2.2,2.2,0,0,1,.36.84,6.58,6.58,0,0,1,.06,1.11v4.14h-1.14v-4.1a3.05,3.05,0,0,0-.13-1,1.09,1.09,0,0,0-.47-.55,1.51,1.51,0,0,0-.8-.21,1.85,1.85,0,0,0-1.26.46,2.28,2.28,0,0,0-.53,1.76v3.68Z" transform="translate(-0.22 1)" fill="#fff"/>
  </g>
</svg>
